<?xml version="1.0" encoding="utf-8"?>
<svg width="236px" height="31px" viewBox="0 0 236 31" version="1.1" xmlns:xlink="http://www.w3.org/1999/xlink" xmlns="http://www.w3.org/2000/svg">
  <g id="Group-2">
    <g id="PANGOLIN" fill="#FCD900" transform="translate(115 0)">
      <path d="M71.46 25.45Q69.93 25.51 68.49 24.82Q67.05 24.13 65.94 22.84Q64.83 21.55 64.125 19.645Q63.42 17.74 63.33 15.55Q63.27 13.99 63.525 12.355Q63.78 10.72 64.395 9.115Q65.01 7.51 65.91 6.28Q66.81 5.05 68.175 4.285Q69.54 3.52 71.19 3.55Q72.63 3.58 73.965 4.3Q75.3 5.02 76.395 6.355Q77.49 7.69 78.135 9.895Q78.78 12.1 78.75 14.83Q78.72 16.3 78.45 17.74Q78.18 19.18 77.61 20.545Q77.04 21.91 76.215 22.96Q75.39 24.01 74.16 24.685Q72.93 25.36 71.46 25.45ZM56.67 11.59L62.1 9.31Q62.01 8.53 61.605 7.63Q61.2 6.73 60.45 5.815Q59.7 4.9 58.395 4.285Q57.09 3.67 55.5 3.64Q53.73 3.61 52.245 4.24Q50.76 4.87 49.74 5.935Q48.72 7 48.03 8.455Q47.34 9.91 47.01 11.5Q46.68 13.09 46.68 14.83Q46.65 17.74 47.535 19.99Q48.42 22.24 49.785 23.35Q51.15 24.46 52.665 24.88Q54.18 25.3 55.545 24.805Q56.91 24.31 57.66 23.11L57.66 25.36L62.28 25.36L62.28 14.83L57.57 14.83Q57.57 15.52 57.45 16.36Q57.33 17.2 57.03 18.16Q56.73 19.12 56.13 19.81Q55.53 20.5 54.69 20.59Q53.73 20.71 53.175 19.36Q52.62 18.01 52.53 15.91Q52.47 13.18 53.025 10.975Q53.58 8.77 54.6 8.68Q55.26 8.65 55.725 8.92Q56.19 9.19 56.355 9.625Q56.52 10.06 56.625 10.51Q56.73 10.96 56.685 11.26Q56.64 11.56 56.67 11.59ZM1.05 4.54L1.05 24.82L6 24.91L5.91 17.98Q9.12 17.56 11.37 15.52Q13.8 13.27 13.95 10.24Q14.13 7.15 11.76 5.35Q8.22 2.68 1.05 4.54ZM31.5 4L37.8 4L41.13 14.74L41.31 14.74L40.41 4.18L45.18 4.09L45.27 24.82L40.68 25L36.18 12.94L35.82 12.94L36.54 24.91L31.23 24.91L31.5 4ZM105.9 4L99.6 4L99.33 24.91L104.64 24.91L103.92 12.94L104.28 12.94L108.78 25L113.37 24.82L113.28 4.09L108.51 4.18L109.41 14.74L109.23 14.74L105.9 4ZM14.07 24.73L19.2 25.09L19.65 22.03L23.88 22.03L24.42 25.09L30.39 24.55L25.32 4.09L18.12 4.27L14.07 24.73ZM85.29 4.18L80.07 4.18L80.34 24.64L91.14 24.64L91.14 19.69L85.38 19.51L85.29 4.18ZM92.19 4.36L97.14 4.27L97.5 24.82L92.01 24.91L92.19 4.36ZM5.91 13.03L5.82 7.96Q7.65 7.81 8.385 9.1Q9.12 10.39 8.385 11.725Q7.65 13.06 5.91 13.03ZM70.83 8.68Q70.14 8.83 69.645 10.09Q69.15 11.35 69.015 13.075Q68.88 14.8 68.985 16.51Q69.09 18.22 69.66 19.405Q70.23 20.59 71.1 20.59Q72.54 20.59 73.05 17.5Q73.56 14.41 72.885 11.425Q72.21 8.44 70.83 8.68ZM23.07 17.44L20.28 17.53L21.36 9.94L21.72 9.94L23.07 17.44Z" />
    </g>
    <g id="HUNTING" fill="#FFFFFF">
      <path d="M96.48 11.59L101.91 9.31Q101.82 8.53 101.415 7.63Q101.01 6.73 100.26 5.815Q99.51 4.9 98.205 4.285Q96.9 3.67 95.31 3.64Q93.54 3.61 92.055 4.24Q90.57 4.87 89.55 5.935Q88.53 7 87.84 8.455Q87.15 9.91 86.82 11.5Q86.49 13.09 86.49 14.83Q86.46 17.74 87.345 19.99Q88.23 22.24 89.595 23.35Q90.96 24.46 92.475 24.88Q93.99 25.3 95.355 24.805Q96.72 24.31 97.47 23.11L97.47 25.36L102.09 25.36L102.09 14.83L97.38 14.83Q97.38 15.52 97.26 16.36Q97.14 17.2 96.84 18.16Q96.54 19.12 95.94 19.81Q95.34 20.5 94.5 20.59Q93.54 20.71 92.985 19.36Q92.43 18.01 92.34 15.91Q92.28 13.18 92.835 10.975Q93.39 8.77 94.41 8.68Q95.07 8.65 95.535 8.92Q96 9.19 96.165 9.625Q96.33 10.06 96.435 10.51Q96.54 10.96 96.495 11.26Q96.45 11.56 96.48 11.59ZM0.99 4.18L6.3 4.27L6.57 10.96L11.16 10.96L10.8 4L16.05 4.09L16.86 24.73L11.34 24.73L11.16 16L6.66 15.91L6.75 24.73L1.08 24.82L0.99 4.18ZM41.37 4L35.07 4L34.8 24.91L40.11 24.91L39.39 12.94L39.75 12.94L44.25 25L48.84 24.82L48.75 4.09L43.98 4.18L44.88 14.74L44.7 14.74L41.37 4ZM71.31 4L77.61 4L80.94 14.74L81.12 14.74L80.22 4.18L84.99 4.09L85.08 24.82L80.49 25L75.99 12.94L75.63 12.94L76.35 24.91L71.04 24.91L71.31 4ZM18.93 4.09L23.91 4.36Q23.76 5.38 23.655 6.565Q23.55 7.75 23.415 9.685Q23.28 11.62 23.34 13.3Q23.4 14.98 23.595 16.555Q23.79 18.13 24.33 19.06Q24.87 19.99 25.71 19.96Q26.61 19.9 27.195 18.97Q27.78 18.04 27.975 16.51Q28.17 14.98 28.23 13.315Q28.29 11.65 28.14 9.775Q27.99 7.9 27.87 6.685Q27.75 5.47 27.6 4.45L32.64 4.18Q32.67 4.48 32.73 5.11Q32.88 6.67 32.97 7.585Q33.06 8.5 33.165 10.3Q33.27 12.1 33.24 13.27Q33.21 14.44 33.075 16.12Q32.94 17.8 32.61 18.91Q32.28 20.02 31.74 21.265Q31.2 22.51 30.405 23.245Q29.61 23.98 28.455 24.475Q27.3 24.97 25.89 25Q24.33 25.03 23.1 24.535Q21.87 24.04 21.03 23.26Q20.19 22.48 19.62 21.175Q19.05 19.87 18.735 18.7Q18.42 17.53 18.315 15.76Q18.21 13.99 18.21 12.76Q18.21 11.53 18.36 9.67Q18.51 7.81 18.6 6.895Q18.69 5.98 18.9 4.42Q18.93 4.21 18.93 4.09ZM53.7 9.67L49.92 9.67L50.01 4.27L62.34 4.27L62.7 9.58L58.74 9.58L59.1 24.82L53.52 24.91L53.7 9.67ZM68.85 4.27L63.9 4.36L63.72 24.91L69.21 24.82L68.85 4.27Z" />
    </g>
  </g>
</svg>