<?xml version="1.0" encoding="utf-8"?>
<svg width="166.06259px" height="21px" viewBox="0 0 166.06259 21" version="1.1" xmlns:xlink="http://www.w3.org/1999/xlink" xmlns="http://www.w3.org/2000/svg">
  <g id="Group">
    <g id="PANGOLIN" fill="#FCD900" transform="translate(75.93125 0)">
      <path d="M47.64 16.8Q46.62 16.84 45.66 16.38Q44.7 15.92 43.96 15.06Q43.22 14.2 42.75 12.93Q42.28 11.66 42.22 10.2Q42.18 9.16 42.35 8.07Q42.52 6.98 42.93 5.91Q43.34 4.84 43.94 4.02Q44.54 3.2 45.45 2.69Q46.36 2.18 47.46 2.2Q48.42 2.22 49.31 2.7Q50.2 3.18 50.93 4.07Q51.66 4.96 52.09 6.43Q52.52 7.9 52.5 9.72Q52.48 10.7 52.3 11.66Q52.12 12.62 51.74 13.53Q51.36 14.44 50.81 15.14Q50.26 15.84 49.44 16.29Q48.62 16.74 47.64 16.8ZM37.78 7.56L41.4 6.04Q41.34 5.52 41.07 4.92Q40.8 4.32 40.3 3.71Q39.8 3.1 38.93 2.69Q38.06 2.28 37 2.26Q35.82 2.24 34.83 2.66Q33.84 3.08 33.16 3.79Q32.48 4.5 32.02 5.47Q31.56 6.44 31.34 7.5Q31.12 8.56 31.12 9.72Q31.1 11.66 31.69 13.16Q32.28 14.66 33.19 15.4Q34.1 16.14 35.11 16.42Q36.12 16.7 37.03 16.37Q37.94 16.04 38.44 15.24L38.44 16.74L41.52 16.74L41.52 9.72L38.38 9.72Q38.38 10.18 38.3 10.74Q38.22 11.3 38.02 11.94Q37.82 12.58 37.42 13.04Q37.02 13.5 36.46 13.56Q35.82 13.64 35.45 12.74Q35.08 11.84 35.02 10.44Q34.98 8.62 35.35 7.15Q35.72 5.68 36.4 5.62Q36.84 5.6 37.15 5.78Q37.46 5.96 37.57 6.25Q37.68 6.54 37.75 6.84Q37.82 7.14 37.79 7.34Q37.76 7.54 37.78 7.56ZM0.7 2.86L0.7 16.38L4 16.44L3.94 11.82Q6.08 11.54 7.58 10.18Q9.2 8.68 9.3 6.66Q9.42 4.6 7.84 3.4Q5.48 1.62 0.7 2.86ZM21 2.5L25.2 2.5L27.42 9.66L27.54 9.66L26.94 2.62L30.12 2.56L30.18 16.38L27.12 16.5L24.12 8.46L23.88 8.46L24.36 16.44L20.82 16.44L21 2.5ZM70.6 2.5L66.4 2.5L66.22 16.44L69.76 16.44L69.28 8.46L69.52 8.46L72.52 16.5L75.58 16.38L75.52 2.56L72.34 2.62L72.94 9.66L72.82 9.66L70.6 2.5ZM9.38 16.32L12.8 16.56L13.1 14.52L15.92 14.52L16.28 16.56L20.26 16.2L16.88 2.56L12.08 2.68L9.38 16.32ZM56.86 2.62L53.38 2.62L53.56 16.26L60.76 16.26L60.76 12.96L56.92 12.84L56.86 2.62ZM61.46 2.74L64.76 2.68L65 16.38L61.34 16.44L61.46 2.74ZM3.94 8.52L3.88 5.14Q5.1 5.04 5.59 5.9Q6.08 6.76 5.59 7.65Q5.1 8.54 3.94 8.52ZM47.22 5.62Q46.76 5.72 46.43 6.56Q46.1 7.4 46.01 8.55Q45.92 9.7 45.99 10.84Q46.06 11.98 46.44 12.77Q46.82 13.56 47.4 13.56Q48.36 13.56 48.7 11.5Q49.04 9.44 48.59 7.45Q48.14 5.46 47.22 5.62ZM15.38 11.46L13.52 11.52L14.24 6.46L14.48 6.46L15.38 11.46Z" />
    </g>
    <g id="HUNTING" fill="#FFFFFF">
      <path d="M64.32 7.56L67.94 6.04Q67.88 5.52 67.61 4.92Q67.34 4.32 66.84 3.71Q66.34 3.1 65.47 2.69Q64.6 2.28 63.54 2.26Q62.36 2.24 61.37 2.66Q60.38 3.08 59.7 3.79Q59.02 4.5 58.56 5.47Q58.1 6.44 57.88 7.5Q57.66 8.56 57.66 9.72Q57.64 11.66 58.23 13.16Q58.82 14.66 59.73 15.4Q60.64 16.14 61.65 16.42Q62.66 16.7 63.57 16.37Q64.48 16.04 64.98 15.24L64.98 16.74L68.06 16.74L68.06 9.72L64.92 9.72Q64.92 10.18 64.84 10.74Q64.76 11.3 64.56 11.94Q64.36 12.58 63.96 13.04Q63.56 13.5 63 13.56Q62.36 13.64 61.99 12.74Q61.62 11.84 61.56 10.44Q61.52 8.62 61.89 7.15Q62.26 5.68 62.94 5.62Q63.38 5.6 63.69 5.78Q64 5.96 64.11 6.25Q64.22 6.54 64.29 6.84Q64.36 7.14 64.33 7.34Q64.3 7.54 64.32 7.56ZM0.66 2.62L4.2 2.68L4.38 7.14L7.44 7.14L7.2 2.5L10.7 2.56L11.24 16.32L7.56 16.32L7.44 10.5L4.44 10.44L4.5 16.32L0.72 16.38L0.66 2.62ZM27.58 2.5L23.38 2.5L23.2 16.44L26.74 16.44L26.26 8.46L26.5 8.46L29.5 16.5L32.56 16.38L32.5 2.56L29.32 2.62L29.92 9.66L29.8 9.66L27.58 2.5ZM47.54 2.5L51.74 2.5L53.96 9.66L54.08 9.66L53.48 2.62L56.66 2.56L56.72 16.38L53.66 16.5L50.66 8.46L50.42 8.46L50.9 16.44L47.36 16.44L47.54 2.5ZM12.62 2.56L15.94 2.74Q15.84 3.42 15.77 4.21Q15.7 5 15.61 6.29Q15.52 7.58 15.56 8.7Q15.6 9.82 15.73 10.87Q15.86 11.92 16.22 12.54Q16.58 13.16 17.14 13.14Q17.74 13.1 18.13 12.48Q18.52 11.86 18.65 10.84Q18.78 9.82 18.82 8.71Q18.86 7.6 18.76 6.35Q18.66 5.1 18.58 4.29Q18.5 3.48 18.4 2.8L21.76 2.62Q21.78 2.82 21.82 3.24Q21.92 4.28 21.98 4.89Q22.04 5.5 22.11 6.7Q22.18 7.9 22.16 8.68Q22.14 9.46 22.05 10.58Q21.96 11.7 21.74 12.44Q21.52 13.18 21.16 14.01Q20.8 14.84 20.27 15.33Q19.74 15.82 18.97 16.15Q18.2 16.48 17.26 16.5Q16.22 16.52 15.4 16.19Q14.58 15.86 14.02 15.34Q13.46 14.82 13.08 13.95Q12.7 13.08 12.49 12.3Q12.28 11.52 12.21 10.34Q12.14 9.16 12.14 8.34Q12.14 7.52 12.24 6.28Q12.34 5.04 12.4 4.43Q12.46 3.82 12.6 2.78Q12.62 2.64 12.62 2.56ZM35.8 6.28L33.28 6.28L33.34 2.68L41.56 2.68L41.8 6.22L39.16 6.22L39.4 16.38L35.68 16.44L35.8 6.28ZM45.9 2.68L42.6 2.74L42.48 16.44L46.14 16.38L45.9 2.68Z" />
    </g>
  </g>
</svg>