<?xml version="1.0" encoding="utf-8"?>
<svg width="275px" height="310px" viewBox="0 0 275 310" version="1.1" xmlns:xlink="http://www.w3.org/1999/xlink" xmlns="http://www.w3.org/2000/svg">
  <g id="svg">
    <path d="M19.999 0L255.001 0C255.328 0 255.655 0.00683594 255.982 0.0200195C256.309 0.0400391 256.636 0.0664063 256.961 0.100098C257.287 0.133301 257.612 0.17334 257.936 0.220215C258.259 0.266602 258.582 0.319824 258.903 0.379883C259.224 0.446777 259.543 0.52002 259.86 0.600098C260.178 0.680176 260.494 0.766602 260.807 0.859863C261.12 0.953125 261.43 1.05664 261.739 1.16992C262.047 1.27686 262.352 1.39355 262.654 1.52002C262.957 1.64648 263.256 1.77979 263.552 1.91992C263.848 2.06006 264.14 2.20654 264.429 2.35986C264.718 2.51318 265.002 2.67676 265.283 2.8501C265.564 3.0166 265.84 3.18994 266.112 3.37012C266.384 3.55029 266.652 3.74023 266.915 3.93994C267.178 4.1333 267.435 4.3335 267.688 4.54004C267.941 4.74658 268.189 4.95996 268.432 5.18018C268.674 5.3999 268.911 5.62646 269.143 5.85986C269.374 6.09326 269.6 6.33008 269.819 6.56982C270.039 6.81006 270.253 7.05664 270.461 7.31006C270.668 7.56348 270.869 7.82324 271.064 8.08984C271.259 8.3501 271.448 8.6167 271.63 8.89014C271.811 9.16309 271.986 9.43994 272.155 9.72021C272.323 10 272.484 10.2832 272.639 10.5698C272.793 10.8564 272.94 11.1499 273.08 11.4502C273.22 11.7437 273.353 12.0435 273.478 12.3501C273.603 12.6499 273.721 12.9531 273.831 13.2598C273.941 13.5669 274.044 13.877 274.139 14.1899C274.234 14.5034 274.321 14.8203 274.401 15.1401C274.48 15.46 274.552 15.7803 274.616 16.1001C274.68 16.4199 274.736 16.7402 274.784 17.0601C274.832 17.3867 274.872 17.7134 274.904 18.04C274.936 18.3667 274.96 18.6934 274.976 19.02C274.992 19.3467 275 19.6733 275 20L275 290C275 290.327 274.992 290.653 274.976 290.98C274.96 291.307 274.936 291.633 274.904 291.96C274.872 292.287 274.832 292.613 274.784 292.94C274.736 293.26 274.68 293.58 274.616 293.9C274.552 294.22 274.48 294.54 274.401 294.86C274.321 295.18 274.234 295.497 274.139 295.81C274.044 296.123 273.941 296.433 273.831 296.74C273.721 297.047 273.603 297.35 273.478 297.65C273.353 297.957 273.22 298.256 273.08 298.55C272.94 298.85 272.793 299.144 272.639 299.43C272.484 299.717 272.323 300 272.155 300.28C271.986 300.56 271.811 300.837 271.63 301.11C271.448 301.383 271.259 301.653 271.064 301.92C270.869 302.18 270.668 302.437 270.461 302.69C270.253 302.943 270.039 303.19 269.819 303.43C269.6 303.677 269.374 303.913 269.143 304.14C268.911 304.374 268.674 304.6 268.432 304.82C268.189 305.04 267.941 305.253 267.688 305.46C267.435 305.667 267.177 305.867 266.914 306.06C266.651 306.26 266.384 306.45 266.112 306.63C265.84 306.81 265.564 306.987 265.283 307.16C265.002 307.327 264.718 307.487 264.429 307.64C264.14 307.793 263.848 307.94 263.552 308.08C263.256 308.22 262.957 308.354 262.654 308.48C262.352 308.606 262.047 308.723 261.739 308.83C261.43 308.943 261.12 309.047 260.807 309.14C260.494 309.233 260.178 309.32 259.86 309.4C259.543 309.48 259.224 309.553 258.903 309.62C258.582 309.68 258.259 309.733 257.936 309.78C257.612 309.833 257.287 309.873 256.961 309.9C256.636 309.934 256.309 309.96 255.982 309.98C255.655 309.993 255.328 310 255.001 310L19.999 310C19.6717 310 19.3447 309.993 19.018 309.98C18.6907 309.96 18.3643 309.934 18.039 309.9C17.713 309.873 17.3883 309.833 17.065 309.78C16.741 309.733 16.4187 309.68 16.098 309.62C15.7767 309.553 15.4573 309.48 15.14 309.4C14.8227 309.32 14.5073 309.233 14.194 309.14C13.8807 309.047 13.57 308.943 13.262 308.83C12.9533 308.723 12.648 308.606 12.346 308.48C12.0433 308.354 11.744 308.22 11.448 308.08C11.1527 307.94 10.8607 307.793 10.572 307.64C10.2833 307.487 9.99867 307.323 9.718 307.15C9.43668 306.983 9.16 306.81 8.888 306.63C8.616 306.45 8.34866 306.26 8.086 306.06C7.82266 305.867 7.56467 305.667 7.312 305.46C7.05867 305.253 6.811 305.04 6.569 304.82C6.32634 304.6 6.08934 304.374 5.858 304.14C5.62666 303.907 5.401 303.67 5.181 303.43C4.961 303.19 4.74733 302.943 4.53999 302.69C4.332 302.437 4.13066 302.177 3.936 301.91C3.74068 301.65 3.55234 301.383 3.371 301.11C3.18901 300.837 3.01367 300.56 2.845 300.28C2.677 300 2.51601 299.717 2.362 299.43C2.20734 299.144 2.06 298.85 1.92 298.55C1.78 298.256 1.64734 297.957 1.522 297.65C1.39734 297.35 1.27968 297.047 1.16901 296.74C1.05901 296.433 0.956329 296.123 0.860992 295.81C0.766327 295.497 0.679001 295.18 0.598999 294.86C0.519669 294.54 0.447998 294.22 0.384003 293.9C0.320663 293.58 0.264999 293.26 0.216995 292.94C0.169006 292.613 0.128662 292.287 0.095993 291.96C0.0639954 291.633 0.0400085 291.307 0.0240021 290.98C0.00799561 290.653 0 290.327 0 290L0 20C0 19.6733 0.00799561 19.3467 0.0240021 19.02C0.0400085 18.6934 0.0639954 18.3667 0.095993 18.04C0.128662 17.7134 0.169006 17.3867 0.216995 17.0601C0.264999 16.7402 0.320663 16.4199 0.384003 16.1001C0.447998 15.7803 0.519669 15.46 0.598999 15.1401C0.679001 14.8203 0.766327 14.5034 0.860992 14.1899C0.956329 13.877 1.05901 13.5669 1.16901 13.2598C1.27968 12.9531 1.39734 12.6499 1.522 12.3501C1.64734 12.0435 1.78 11.7437 1.92 11.4502C2.06 11.1499 2.20734 10.8564 2.362 10.5698C2.51601 10.2832 2.677 10 2.845 9.72021C3.01367 9.43994 3.18901 9.16309 3.371 8.89014C3.55234 8.6167 3.74068 8.3501 3.936 8.08984C4.13066 7.82324 4.332 7.56348 4.53999 7.31006C4.74733 7.05664 4.961 6.81006 5.181 6.56982C5.401 6.33008 5.62666 6.09326 5.858 5.85986C6.08934 5.62646 6.32634 5.3999 6.569 5.18018C6.811 4.95996 7.05867 4.74658 7.312 4.54004C7.56467 4.3335 7.82266 4.1333 8.086 3.93994C8.34866 3.74023 8.616 3.55029 8.888 3.37012C9.16 3.18994 9.43668 3.0166 9.718 2.8501C9.99867 2.67676 10.2833 2.51318 10.572 2.35986C10.8607 2.20654 11.1527 2.06006 11.448 1.91992C11.744 1.77979 12.0433 1.64648 12.346 1.52002C12.648 1.39355 12.9533 1.27686 13.262 1.16992C13.57 1.05664 13.8807 0.953125 14.194 0.859863C14.5073 0.766602 14.8227 0.680176 15.14 0.600098C15.4573 0.52002 15.7767 0.446777 16.098 0.379883C16.4187 0.319824 16.741 0.266602 17.065 0.220215C17.3883 0.17334 17.713 0.133301 18.039 0.100098C18.3643 0.0664063 18.6907 0.0400391 19.018 0.0200195C19.3447 0.00683594 19.6717 0 19.999 0L19.999 0Z" id="nft-Copy-2" fill="#FC4850" fill-rule="evenodd" stroke="none" />
  </g>
</svg>